IKResults
version=1
nRows=18
nColumns=26
inDegrees=yes

Units are S.I. units (second, meters, Newtons, ...)
If the header above contains a line with 'inDegrees', this indicates whether rotational values are in degrees (yes) or radians (no).

endheader
time	pelvis_tilt	pelvis_list	pelvis_rotation	pelvis_tx	pelvis_ty	pelvis_tz	hip_flexion_r	hip_adduction_r	hip_rotation_r	knee_angle_r	knee_angle_r_beta	ankle_angle_r	subtalar_angle_r	mtp_angle_r	hip_flexion_l	hip_adduction_l	hip_rotation_l	knee_angle_l	knee_angle_l_beta	ankle_angle_l	subtalar_angle_l	mtp_angle_l	lumbar_extension	lumbar_bending	lumbar_rotation
      1.25500000	      4.57360993	      0.53828467	      9.41383854	     -0.09476846	      1.05662043	     -0.56278789	    -14.82294262	     -2.67380942	     -8.95676793	      0.72845792	      0.01271399	    -23.11783486	      0.00000000	      0.00000000	    -10.98228078	     -8.96745191	    -12.11275011	      2.72229898	      0.04751308	    -28.69269066	      0.00000000	      0.00000000	     -7.07361608	     -0.35728274	     -3.37994905
      1.26000000	      4.76612116	      0.55914387	      9.42564334	     -0.09480647	      1.05661657	     -0.56277262	    -14.97255868	     -2.66788994	     -9.01245101	      1.00505362	      0.01754149	    -23.02767436	      0.00000000	      0.00000000	    -11.21425685	     -8.93011811	    -11.86741856	      2.84937657	      0.04973100	    -28.18892874	      0.00000000	      0.00000000	     -7.29478277	     -0.35779853	     -3.37893117
      1.26500000	      4.95313620	      0.58635197	      9.44004612	     -0.09490653	      1.05638167	     -0.56273130	    -15.10869281	     -2.67092788	     -9.07057466	      1.28319299	      0.02239594	    -22.97630409	      0.00000000	      0.00000000	    -11.41846876	     -8.89156587	    -11.62503107	      3.01476132	      0.05261751	    -27.71957319	      0.00000000	      0.00000000	     -7.52450393	     -0.36928367	     -3.37706877
      1.27000000	      5.13127021	      0.62265482	      9.45350287	     -0.09507343	      1.05590608	     -0.56266696	    -15.22995209	     -2.68806620	     -9.12277400	      1.56056042	      0.02723692	    -22.94474750	      0.00000000	      0.00000000	    -11.59202198	     -8.84698696	    -11.38642521	      3.21795871	      0.05616397	    -27.28569400	      0.00000000	      0.00000000	     -7.75923122	     -0.39289767	     -3.37814071
      1.27500000	      5.30300762	      0.66857997	      9.47125701	     -0.09529758	      1.05518734	     -0.56258746	    -15.33959685	     -2.71711551	     -9.17570424	      1.83971410	      0.03210907	    -22.92456317	      0.00000000	      0.00000000	    -11.73634506	     -8.79708351	    -11.15114561	      3.46021199	      0.06039209	    -26.87858124	      0.00000000	      0.00000000	     -7.99962499	     -0.42933304	     -3.38336379
      1.28000000	      5.46654901	      0.72664097	      9.49147301	     -0.09556930	      1.05422312	     -0.56250126	    -15.43642024	     -2.76293807	     -9.22904353	      2.12127419	      0.03702322	    -22.90932280	      0.00000000	      0.00000000	    -11.85229187	     -8.73789587	    -10.91990972	      3.73904176	      0.06525859	    -26.49411325	      0.00000000	      0.00000000	     -8.24190310	     -0.48049792	     -3.39197437
      1.28500000	      5.62187980	      0.79487723	      9.51459669	     -0.09588752	      1.05301375	     -0.56242026	    -15.51845702	     -2.82401854	     -9.28381131	      2.40834332	      0.04203352	    -22.88872357	      0.00000000	      0.00000000	    -11.94034564	     -8.67021097	    -10.69237535	      4.05169817	      0.07071547	    -26.13046230	      0.00000000	      0.00000000	     -8.48487817	     -0.54319135	     -3.40342269
      1.29000000	      5.76887521	      0.87420614	      9.54076695	     -0.09625096	      1.05155612	     -0.56235039	    -15.58081069	     -2.90352211	     -9.34568559	      2.71242355	      0.04734072	    -22.85137100	      0.00000000	      0.00000000	    -12.00151463	     -8.59273325	    -10.46527720	      4.39711654	      0.07674416	    -25.78864621	      0.00000000	      0.00000000	     -8.72789300	     -0.61684406	     -3.41991009
      1.29500000	      5.91000825	      0.95960851	      9.57197209	     -0.09665278	      1.04986019	     -0.56230469	    -15.62659332	     -2.99520889	     -9.41555709	      3.02992349	      0.05288214	    -22.80908878	      0.00000000	      0.00000000	    -12.03857845	     -8.51076289	    -10.23873032	      4.77414924	      0.08332462	    -25.46430062	      0.00000000	      0.00000000	     -8.97137297	     -0.69501929	     -3.43929933
      1.30000000	      6.04424043	      1.05096833	      9.60590568	     -0.09709255	      1.04792471	     -0.56228630	    -15.65323971	     -3.10115223	     -9.48926670	      3.36329770	      0.05870062	    -22.76509610	      0.00000000	      0.00000000	    -12.05227882	     -8.42352147	    -10.01054179	      5.17921559	      0.09039436	    -25.16723699	      0.00000000	      0.00000000	     -9.21421889	     -0.77710510	     -3.46064112
      1.30500000	      6.17378788	      1.14276082	      9.64669430	     -0.09756442	      1.04575004	     -0.56230256	    -15.67227137	     -3.21079999	     -9.55591300	      3.69474807	      0.06448552	    -22.73483194	      0.00000000	      0.00000000	    -12.04469062	     -8.33796385	     -9.77812999	      5.60907483	      0.09789682	    -24.90803890	      0.00000000	      0.00000000	     -9.45702458	     -0.85608845	     -3.48482513
      1.31000000	      6.30001711	      1.23392675	      9.69656605	     -0.09806317	      1.04333578	     -0.56235594	    -15.68371198	     -3.32255808	     -9.62555140	      4.02917022	      0.07032229	    -22.73782718	      0.00000000	      0.00000000	    -12.01655199	     -8.25614781	     -9.53925015	      6.06528764	      0.10585924	    -24.69365848	      0.00000000	      0.00000000	     -9.70008366	     -0.93007918	     -3.51481403
      1.31500000	      6.42568367	      1.31789968	      9.75715952	     -0.09858395	      1.04068872	     -0.56245306	    -15.69066179	     -3.42810017	     -9.69777235	      4.36354506	      0.07615823	    -22.79198274	      0.00000000	      0.00000000	    -11.97094944	     -8.18559687	     -9.29303853	      6.54453684	      0.11422372	    -24.53592224	      0.00000000	      0.00000000	     -9.94429530	     -0.99067092	     -3.55138894
      1.32000000	      6.55156105	      1.39266447	      9.83006679	     -0.09912391	      1.03780369	     -0.56259345	    -15.69238720	     -3.52479442	     -9.77504060	      4.70229411	      0.08207051	    -22.90211006	      0.00000000	      0.00000000	    -11.90754940	     -8.12927846	     -9.03996075	      7.04702152	      0.12299373	    -24.44552028	      0.00000000	      0.00000000	    -10.18970785	     -1.03544307	     -3.59763290
      1.32500000	      6.67863925	      1.45509372	      9.91668848	     -0.09967760	      1.03468082	     -0.56277438	    -15.68775151	     -3.60812778	     -9.86512760	      5.05040671	      0.08814623	    -23.07920384	      0.00000000	      0.00000000	    -11.82634098	     -8.09186606	     -8.78167231	      7.57432618	      0.13219693	    -24.42451214	      0.00000000	      0.00000000	    -10.43609262	     -1.06073364	     -3.65330733
      1.33000000	      6.80914444	      1.50609223	     10.01386981	     -0.10024661	      1.03132289	     -0.56298769	    -15.67047698	     -3.68203790	     -9.97712122	      5.42567294	      0.09469586	    -23.31489676	      0.00000000	      0.00000000	    -11.72926697	     -8.07275586	     -8.52411980	      8.12838411	      0.14186707	    -24.47386182	      0.00000000	      0.00000000	    -10.68682361	     -1.06740056	     -3.71794915
      1.33500000	      6.94494892	      1.53860009	     10.12195664	     -0.10082989	      1.02773286	     -0.56322867	    -15.64305846	     -3.73635627	    -10.10150507	      5.82726292	      0.10170492	    -23.58567519	      0.00000000	      0.00000000	    -11.61613226	     -8.08095234	     -8.27393380	      8.71100466	      0.15203571	    -24.58287731	      0.00000000	      0.00000000	    -10.94242470	     -1.04814424	     -3.78878305
      1.34000000	      7.08511630	      1.55299021	     10.23599497	     -0.10142840	      1.02390829	     -0.56348012	    -15.59869945	     -3.77298873	    -10.23463377	      6.27418720	      0.10950522	    -23.83433942	      0.00000000	      0.00000000	    -11.48590546	     -8.11641687	     -8.03918825	      9.32468018	      0.16274637	    -24.74183164	      0.00000000	      0.00000000	    -11.20257420	     -1.00527144	     -3.86205714
